<svg width="32" height="32" viewBox="0 0 32 32" fill="none" xmlns="http://www.w3.org/2000/svg">
<g clip-path="url(#clip0_38_197)">
<path d="M9.33333 5.33329V2.66663H22.6667V5.33329H29.3333V7.99996H26.6667V27.9999C26.6667 28.3536 26.5262 28.6927 26.2761 28.9428C26.0261 29.1928 25.6869 29.3333 25.3333 29.3333H6.66667C6.31305 29.3333 5.97391 29.1928 5.72386 28.9428C5.47381 28.6927 5.33334 28.3536 5.33334 27.9999V7.99996H2.66667V5.33329H9.33333ZM8 7.99996V26.6666H24V7.99996H8ZM12 12H14.6667V22.6666H12V12ZM17.3333 12H20V22.6666H17.3333V12Z" fill="white"/>
</g>
<defs>
<clipPath id="clip0_38_197">
<rect width="32" height="32" fill="white"/>
</clipPath>
</defs>
</svg>
