<svg width="26" height="28" viewBox="0 0 26 28" fill="none" xmlns="http://www.w3.org/2000/svg">
<path d="M25.1501 11.7744L22.5091 9.13436C22.3562 8.98044 22.1059 8.98044 21.953 9.13436L14.7264 16.36L14.7408 16.3744L14.7178 16.368L13.7286 20.0588L13.7315 20.0595C13.6867 20.1955 13.7146 20.35 13.823 20.4592C13.9434 20.5804 14.1203 20.6035 14.2656 20.535L14.2662 20.5379L17.919 19.559L17.9168 19.5504L17.9229 19.5564L25.1498 12.3299C25.303 12.1772 25.303 11.9267 25.1501 11.7744ZM14.9312 19.343L15.5187 17.1523L17.1226 18.7561L14.9312 19.343Z" fill="white"/>
<path d="M20.0294 21.4336H17.6346C17.417 21.4345 17.2422 21.6089 17.2413 21.8268L17.2419 21.8307V24.6195H3.91584V4.97883H5.51488V5.96091C5.51424 5.97147 5.51168 5.98107 5.51168 5.99195C5.51168 6.31131 5.77088 6.57243 6.09216 6.57243C6.09376 6.57243 6.09504 6.57211 6.09664 6.57211V6.57467H15.0653C15.3869 6.57403 15.6454 6.31355 15.6454 5.99451C15.6454 5.98971 15.6442 5.98523 15.6442 5.98043V4.97883H17.2416V7.76859L17.241 7.77243C17.2416 7.99067 17.4157 8.16507 17.6339 8.16571H20.0288H20.0291C20.2467 8.16475 20.4211 7.99067 20.4221 7.77275V3.52315H20.416C20.4163 3.50747 20.4208 3.49275 20.4208 3.47675C20.4208 2.55099 19.6701 1.79835 18.7437 1.79835C18.7309 1.79835 18.7194 1.80187 18.7066 1.80219H14.0483V0.713551V0.712911C14.0483 0.430991 13.8198 0.203151 13.5386 0.202511V0.199951H7.63456V0.201871C7.62976 0.201871 7.6256 0.200591 7.6208 0.200591C7.3392 0.200591 7.11072 0.428751 7.11072 0.710671C7.11072 0.713871 7.11168 0.717071 7.11168 0.720271V1.80187H2.4192C2.41696 1.80187 2.41504 1.80123 2.4128 1.80123C1.48704 1.80123 0.735359 2.55451 0.735359 3.47899C0.735359 3.49403 0.739519 3.50779 0.739839 3.52283H0.735359V26.1059H0.736319C0.736319 26.1088 0.735359 26.1116 0.735359 26.1145C0.735359 27.0409 1.48736 27.7907 2.41312 27.7907C2.43808 27.7907 2.46144 27.7843 2.4864 27.7833V27.79H18.6464C18.6778 27.7916 18.7075 27.7993 18.7392 27.7993C19.6653 27.7993 20.4157 27.048 20.4157 26.1232C20.4157 26.1171 20.4141 26.1116 20.4141 26.1056H20.423V21.8265C20.4218 21.6083 20.2477 21.4342 20.0294 21.4336Z" fill="white"/>
</svg>
