<svg width="40" height="40" viewBox="0 0 40 40" fill="none" xmlns="http://www.w3.org/2000/svg">
<path d="M6.24208 31.6074C10.3053 29.3108 14.9996 28 20 28C25.0004 28 29.6946 29.3108 33.758 31.6074M26 16C26 19.3138 23.3138 22 20 22C16.6862 22 14 19.3138 14 16C14 12.6863 16.6862 10 20 10C23.3138 10 26 12.6863 26 16ZM38 20C38 29.9412 29.9412 38 20 38C10.0589 38 2 29.9412 2 20C2 10.0589 10.0589 2 20 2C29.9412 2 38 10.0589 38 20Z" stroke="white" stroke-width="3" stroke-linecap="round" stroke-linejoin="round"/>
</svg>
