<svg width="36" height="36" viewBox="0 0 36 36" fill="none" xmlns="http://www.w3.org/2000/svg">
<path d="M0 4C0 2.93913 0.421427 1.92172 1.17157 1.17157C1.92172 0.421427 2.93913 0 4 0H27.172C28.2328 0.00022655 29.25 0.421802 30 1.172L35.414 6.586C35.7891 6.96099 35.9999 7.46961 36 8V32C36 33.0609 35.5786 34.0783 34.8284 34.8284C34.0783 35.5786 33.0609 36 32 36H4C2.93913 36 1.92172 35.5786 1.17157 34.8284C0.421427 34.0783 0 33.0609 0 32V4ZM12 32H24V20H12V32ZM28 32H32V8.828L28 4.828V8C28 9.06087 27.5786 10.0783 26.8284 10.8284C26.0783 11.5786 25.0609 12 24 12H12C10.9391 12 9.92172 11.5786 9.17157 10.8284C8.42143 10.0783 8 9.06087 8 8V4H4V32H8V20C8 18.9391 8.42143 17.9217 9.17157 17.1716C9.92172 16.4214 10.9391 16 12 16H24C25.0609 16 26.0783 16.4214 26.8284 17.1716C27.5786 17.9217 28 18.9391 28 20V32ZM12 4V8H24V4H12Z" fill="white"/>
</svg>
